<svg style="position:fixed;left:auto;top:12.5%" version="1" xmlns="http://www.w3.org/2000/svg" xmlns:xlink="http://www.w3.org/1999/xlink" width="800" height="600" viewBox="0 0 300 200"><g opacity="0" transform="translate(-17.039 14.629) scale(1.2179)" stroke="#000"><path d="M140.69 100.11c-1.326-.406-3.556-2.217-18.67-15.165l-8.381-7.18-.934.449c-.514.246-1.148.472-1.41.501-.422.048-.54.004-1.084-.403-.935-.7-4.127-3.933-4.06-4.11.033-.084.091-.897.13-1.806.108-2.485.259-2.52-4.378 1.01-2.983 2.272-7.096 4.894-7.678 4.896-.109 0-.58-.406-1.048-.903l-.851-.902-.51.65c-.281.357-.584.864-.673 1.126-.233.686-.726 1.236-2.93 3.275-1.08.998-2.54 2.36-3.247 3.027-2.943 2.78-5.58 4.543-7.266 4.854-1.204.223-1.692.54-4.335 2.811-1.715 1.474-3.023 2.459-4.114 3.095l-.777.454-2.017-.246c-3.3-.404-3.882-.515-4.104-.787-.238-.293-.247-.783-.029-1.504.234-.771.21-1.245-.11-2.093-.153-.406-.278-.91-.278-1.121 0-.795 1.267-1.723 2.356-1.725.59-.001.918-.232.81-.572-.102-.322.334-1.117.961-1.755.632-.642.933-.711 1.125-.26.202.473.431.695.718.695.348 0 .703-.585.704-1.16 0-.39-.078-.514-.765-1.201l-.766-.766.36-.856c.2-.47.7-1.756 1.114-2.858 1.353-3.602 2.092-4.929 4.331-7.774 1.476-1.876 1.89-2.534 2.272-3.616.496-1.402.954-2.055 2.615-3.735l1.541-1.557-.063-.558a108.47 108.47 0 0 0-.136-1.122c-.093-.733.065-1.039 1.457-2.828 1.87-2.403 3.26-4.606 3.126-4.955-.032-.082-.248-.178-.48-.212-.893-.133-1.372-.29-1.89-.62-.294-.187-.74-.392-.989-.455-.752-.19-2.784-2.115-3.713-3.518-.344-.52-.672-1.723-.672-2.464 0-1.734.72-2.931 2.836-4.717 1.774-1.497 2.723-2.41 3.535-3.4.736-.897 1.127-1.127 1.917-1.127.28 0 .694-.095.922-.211.227-.116 1.414-1.206 2.637-2.422 2.36-2.345 3.39-3.229 5.005-4.294 2.24-1.478 4.442-2.303 7.178-2.692 1.96-.279 4.017-.186 6.534.296.978.187 1.284.21 1.389.106.087-.087.148-.68.176-1.692l.043-1.558 1.221-1.11c.672-.61 1.53-1.329 1.906-1.597 1.13-.803 2.377-1.053 3.108-.621.29.17.694.244 1.722.314 1.226.082 1.379.117 1.748.4.598.455 1.08 1.164 1.953 2.873.454.888.85 1.53.942 1.53.268 0 .41.431.402 1.23-.014 1.497-.398 2.452-1.88 4.684-1.522 2.291-1.61 2.54-.908 2.54.274 0 .5.145 1.072.694 3.385 3.246 6.629 9.789 7.754 15.638.45 2.339.557 3.424.557 5.636.001 3.99-.634 6.573-2.332 9.478-.834 1.428-2.255 2.845-4.192 4.18-1.775 1.224-3.283 2.438-4.645 3.74l-1.056 1.011 1.168 1.128c2.093 2.022 10.23 9.306 15.628 13.991 4.11 3.567 6.39 5.285 7.72 5.817.534.214.818.247 2.013.24 1.712-.013 2.532-.213 5.84-1.43 3.532-1.3 5.179-1.83 5.69-1.834.596-.004.965.406 1.163 1.289.28 1.247-.27 3.273-.987 3.644-.625.323-5.24 1.232-7.103 1.399-.68.06-1.293.185-1.606.326-.989.443-3.516.715-4.332.465zm3.115-.79c1.887-.232 2.475-.338 2.807-.51.186-.096 1.616-.497 3.178-.89 3.541-.892 3.747-.977 3.92-1.618.127-.468.092-1.625-.056-1.864-.188-.304-.756-.168-4.844 1.16-5.894 1.914-7.833 2.138-10.002 1.155-.99-.45-1.426-.794-5.738-4.545-9.418-8.192-16.725-14.463-16.855-14.463-.263 0-.205.283.13.635.586.617 5.993 5.419 10.388 9.227 9.436 8.174 12.227 10.447 13.845 11.276 1.096.56 1.63.633 3.226.438zm-78.04-5.065c.236-.235.22-.46-.04-.6-.674-.36-1.678.172-1.208.642.194.194 1.04.166 1.249-.042zm2.065.01c.2-.24.053-.502-.28-.502-.41 0-.72.193-.72.448 0 .18.077.219.432.219.246 0 .49-.071.568-.165zm.604-1.577c.377-.18.563-.417.46-.585-.028-.045-.338-.147-.688-.225-.582-.13-.65-.125-.784.058-.203.277-.184.455.076.714.27.271.434.277.936.038zm-1.719-.364c.063-.118.115-.446.115-.728 0-1.69-2.06-2.842-3.495-1.955-.617.382-.56.781.218 1.536 1.098 1.063 2.864 1.704 3.162 1.147zM70 89.947c1.242-1.279 1.884-2.18 2.014-2.83.14-.705-.55-.63-1.348.146-.452.439-.515.553-.458.834.063.316.05.326-.364.326-.524 0-.633.126-.707.818-.031.297-.136.618-.232.714-.157.158-.214.146-.609-.127a5.298 5.298 0 0 1-.692-.575c-.26-.278-.492-.348-.595-.182-.064.103.998 1.92 1.196 2.048.34.22.622.036 1.795-1.173zm8.93-2.132c1.495-.71 3.695-2.305 3.695-2.679 0-.227-.367-.383-.91-.386-.606-.003-1.477-.36-2.505-1.025-1.6-1.036-2.008-1.111-2.614-.483-.321.333-2.423 3.646-2.591 4.085-.095.248 1.055.585 1.937.567.564-.01.774.034 1.001.213.385.303.89.228 1.986-.292zm-5.335-2.25c.028-.197-.076-.301-.519-.526-.593-.3-2.023-.731-2.427-.731-.497 0-.45.396.085.711.616.364 2.041.84 2.437.815.307-.02.396-.076.424-.27zm.977-1.91c.764-.562 3.826-3.903 4.45-4.856.168-.256.17-.308.023-.455-.091-.091-.547-.261-1.013-.378-1.843-.46-3.482-1.683-4.733-3.53-.259-.383-.519-.696-.578-.696-.188 0-1.062 1.286-1.642 2.416-1.162 2.262-2.022 4.726-1.849 5.297.23.755 1.477 1.68 2.966 2.198 1.21.421 1.807.422 2.376.004zm8.999-.103c.883-.302.815-.694-.21-1.213-.683-.346-1.589-1.005-2.404-1.748-.336-.307-.742-.675-.902-.818l-.29-.26-.458.76c-.253.418-.49.912-.527 1.098-.306 1.53 2.695 2.897 4.79 2.181zm2.892-1.956c.753-.355 1.538-1.018 2.358-1.993.889-1.057 1.288-1.8 1.194-2.224-.095-.434.229-.761 1.133-1.145.39-.166.71-.332.71-.369-.001-.037-.46-.567-1.019-1.179a89.858 89.858 0 0 1-2.07-2.366c-.916-1.09-1.077-1.236-1.235-1.114-.1.077-.878.767-1.73 1.532-2.452 2.201-4.09 4.229-4.468 5.526-.165.57-.165.651.008 1.105.206.538.689.978 1.81 1.648 1.444.862 2.366 1.024 3.309.58zm-6.389-4.645c.558-.167 1.265-.882 1.17-1.183-.043-.132-.48-.438-1.093-.762-1.69-.896-3.356-2.267-4.275-3.518-.452-.614-.737-.672-1.238-.252-1.146.965-.863 2.814.646 4.21 1.35 1.25 3.445 1.908 4.79 1.505zm15.148-.165c1.242-.63 4.527-2.755 6.147-3.977 2.05-1.547 2.712-2.41 2.492-3.248-.191-.731-3.066-3.484-12.596-12.061-2.617-2.355-4.81-4.3-4.873-4.323-.154-.054-1.327 1.24-2.8 3.09-1.522 1.912-2.098 2.77-2.056 3.06.024.173.395.411 1.484.954 1.731.862 2.635 1.491 3.617 2.518.952.996 1.285 1.498 2.165 3.263.401.806.775 1.449.83 1.429.057-.02.968-.845 2.027-1.833 3.076-2.874 4.092-3.649 4.092-3.119 0 .288-.6.952-3.089 3.415-3.187 3.155-3.686 3.93-3.317 5.158.206.684.528 1.1 2.41 3.109.883.942 1.832 1.97 2.11 2.285.278.314.567.571.643.571.076 0 .397-.131.714-.292zm18.77-1.32c.308-.273.71-.575.892-.669.396-.205.686-.743.931-1.731.212-.853.233-1.577.055-1.92-.243-.468-.896-1.193-1.233-1.367-.49-.253-.792-.073-1.18.704-.948 1.895-1.438 4.73-.91 5.26.37.37.813.285 1.444-.276zM82.424 73.95c1.235-.262 2.345-1.048 3.488-2.47 1.272-1.583 2.496-3.794 2.497-4.508 0-1.003-1.585-2.898-3.533-4.223-1.894-1.288-4.231-2.252-4.64-1.914-.248.207-.21.452.162 1.04.43.677.512 1.025.325 1.374-.082.154-.664.655-1.293 1.113-1.39 1.014-2.138 1.829-2.68 2.922-.382.772-.41.898-.409 1.836.001.925.031 1.065.377 1.73.532 1.024 1.544 1.98 2.7 2.55 1.286.635 1.994.765 3.006.55zm26.47-.292c.594-.642 1.222-1.582 1.185-1.773-.117-.609-1.048.122-1.605 1.26-.402.821-.15 1.13.42.513zm8.82-2.21c.226-.087.505-.616.505-.958 0-.365-.663-1.695-1.211-2.427-.785-1.05-2.455-1.96-4.066-2.218-1.236-.198-1.944.05-2.156.755-.19.635-.167 1.527.044 1.739.096.096.184.174.195.172.01 0 .395-.1.854-.22 1.051-.276 1.706-.276 2.31-.002.617.28 1.605 1.219 2.169 2.06.758 1.132.922 1.265 1.356 1.099zm-5.803-.35c.25-.277.63-1.145.633-1.448.003-.298-.22-.41-.616-.31-.332.083-1.273.915-1.273 1.126 0 .079.13.298.288.486.325.386.7.442.968.146zm-4.395-1.118c.064-.194-.596-.832-6.424-6.199a1410.696 1410.696 0 0 1-8.9-8.272c-6.112-5.75-7.124-6.614-7.669-6.55-.193.022-.297.11-.32.268-.025.18.423.67 1.892 2.07C89.29 54.344 97.125 61.46 102.7 66.38c4.31 3.803 4.661 4.066 4.817 3.6zm12.776-.42c2.068-.914 3.951-2.853 5.053-5.205 1.008-2.15 1.277-3.9 1.185-7.688-.087-3.569-.383-5.586-1.26-8.565-1.44-4.899-3.38-8.55-6.312-11.883-.894-1.017-1.24-1.23-1.474-.911-.385.526-.025 1.511 1.042 2.852 3.237 4.068 5.79 9.778 6.377 14.264.118.898.115 1.09-.019 1.252-.205.25-1.334.755-2.078.93-.852.2-1.056.034-1.402-1.138a33.992 33.992 0 0 1-.46-1.751c-.985-4.35-2.404-7.506-4.635-10.314l-.55-.692-.91.574c-3.375 2.124-4.955 2.871-6.06 2.864-.754-.005-.908-.17-1.049-1.116-.206-1.391.175-4.843.76-6.863.344-1.194.34-1.34-.041-1.43-.168-.04-1.114-.44-2.101-.89-.988-.448-2.169-.918-2.625-1.043-1.09-.299-2.558-.42-3.867-.32-3.7.282-3.865.263-4.048-.473-.219-.88.214-1.754 1.086-2.188.934-.465 2.185-.613 4.63-.547 2.451.065 3.41.225 4.947.823 1.922.747 2.065.75 2.086.028.021-.754-1.099-1.335-3.614-1.875-4.06-.872-7.752-.167-11.316 2.16-2.077 1.355-6.563 5.699-6.563 6.355 0 .081.342.523.76.982.53.58.956 1.21 1.402 2.068.352.678.716 1.262.807 1.297.092.035 1.196-.441 2.464-1.064 2.541-1.248 2.899-1.351 4.68-1.351 2.133 0 3.814.305 4.33.786.232.216.327.704.156.81-.045.028-.634-.013-1.307-.09s-1.242-.125-1.265-.105c-.098.084.254 2.31.545 3.443.83 3.228 2.271 5.78 4.554 8.062 2.285 2.282 4.568 3.549 7.338 4.07 1.11.208 2.698.232 3.178.046.492-.19.933-.66 1.011-1.076.11-.582-.312-1.762-.987-2.766-.657-.978-1.192-1.869-1.192-1.983 0-.04.128-.074.286-.074.82 0 2.374 1.77 2.882 3.282.4 1.193.4 4.002-.002 6.167-.23 1.234-.584 2.443-1.151 3.928-.252.658-.458 1.318-.458 1.466 0 .203.223.445.919.997 1.066.844 1.72 1.587 2.729 3.098.398.596.76 1.084.805 1.084.044 0 .374-.13.734-.288zm-10.767-.24c.085-.167.138-.604.274-2.25.042-.51-.322-.39-1.087.356-.864.843-.9 1.05-.294 1.657.472.47.935.57 1.107.237zM107.1 66.73c.654-.334 1.83-1.476 1.746-1.696-.2-.523-6.13-3.979-8.345-4.864-1.209-.483-1.662-.293-1.12.469.453.636 4.66 4.503 6.103 5.609.371.285 1.024.685 1.144.702.018.002.23-.097.472-.22zm6.46-2.477c.424-.285 1.434-1.562 1.434-1.814 0-.357-.364-.287-1.092.213-1.164.798-1.852 1.448-1.768 1.667.111.29.955.25 1.425-.066zm-3.136-.601c.982-.575 3.371-2.16 3.325-2.207-.025-.025-.735-.122-1.577-.216-2.85-.316-4.674-.815-6.91-1.893-2.233-1.075-4.127-2.465-6.012-4.41-2.185-2.256-3.61-4.445-4.908-7.543-.881-2.102-1.193-2.444-1.9-2.079-.419.217-1.01.889-1.216 1.38-.15.361-.141.414.196 1.061.512.984 1.741 2.984 3.077 5.005 2.697 4.082 3.746 5.015 8.315 7.397 1.285.67 3.337 1.8 4.56 2.51 1.224.712 2.296 1.294 2.382 1.294.087 0 .387-.135.668-.299zm4.377-3.747c.3-.203.902-1.326 1.19-2.215.217-.673.137-.705-1.914-.779-2.12-.075-3.384-.28-4.94-.8-4.935-1.65-8.744-5.798-10.327-11.245a39.12 39.12 0 0 1-.6-2.536c-.203-1.006-.37-1.576-.48-1.638-.126-.07-.503.232-1.508 1.21-1.819 1.77-2.043 2.27-1.613 3.6.302.937 1.713 3.721 2.443 4.823 3.268 4.93 8.23 8.576 13.086 9.62 1.406.301 4.195.278 4.663-.04zM96.753 57.77c0-.203-.39-.722-2.836-3.774-.98-1.223-2.103-2.675-2.495-3.225-1.228-1.729-1.584-1.998-1.949-1.477-.372.532-.101 1.836.562 2.706.385.505 3.641 3.586 5.246 4.964 1.122.963 1.472 1.155 1.472.806zm26.583-4.44c.382-.197.49-.478.474-1.225-.032-1.5-2.22-7.505-3.553-9.749-1.159-1.952-2.8-3.868-3.196-3.729-.355.126-.046.95 1.584 4.22 1.923 3.856 2.31 4.836 2.92 7.405.58 2.442.651 2.698.84 2.993.186.291.48.318.931.085zm-39.834-1.452c.185-.156.368-.383.407-.506.1-.314-.226-.768-.55-.768-.468 0-1.233 1.086-1.014 1.44.138.223.808.128 1.157-.166zm-2.648-1.306c.157-.136.48-.497.716-.803.784-1.01 1.762-1.954 3.17-3.054 2.016-1.577 3.404-2.837 3.724-3.384.772-1.316-.195-4.336-1.613-5.045-1.024-.511-2.252-.428-3.344.226-1.14.682-1.172 1.297-.099 1.869 1.212.645 2.774 2.462 2.777 3.229.002.617-3.178 3.184-3.52 2.842-.11-.11.31-.825.868-1.475.709-.826 1.029-1.501.938-1.983-.09-.477-.726-1.077-1.658-1.562-1.024-.532-1.59-.537-2.36-.019-.857.577-1.83 1.544-1.83 1.818 0 .407.958.921 1.719.921.902 0 .932.507.14 2.338-.869 2.006-1.06 3.085-.697 3.95.13.312.22.385.472.382.172-.002.44-.115.597-.25zm7.138-1.387c.16-.168.596-.706.97-1.195 1.014-1.327 3.05-3.52 4.888-5.266 2.275-2.16 2.67-2.79 1.663-2.655-.64.086-3.712 1.639-4.482 2.265-.869.708-3.336 3.516-3.65 4.154-.194.396-.246.698-.247 1.446-.003 1.14.096 1.557.368 1.557.11 0 .33-.137.49-.306zm-9.44-1.197c.346-.733.686-2.263.537-2.412-.23-.23-.682.088-.933.655-.236.535-.397 1.768-.272 2.093.116.302.447.136.669-.336zm32.55-5.691c2.563-1.38 4.561-3.287 4.561-4.354 0-.367-.228-.307-1.593.418-1.487.79-2.15.986-2.637.784-.39-.161-1.283-1.115-1.531-1.634-.351-.734-.717-.51-.896.547-.174 1.03-.28 3.298-.19 4.03.05.396.161.717.295.85.2.202.24.205.63.042.229-.096.842-.403 1.362-.683zm2.177-4.48c1.347-.664 3.015-2.84 4.17-5.443.533-1.2.52-1.49-.094-2.028-1.101-.967-3.763-1.652-6.43-1.655h-.901l-.073 1.185c-.204 3.34.048 5.465.842 7.101.178.367.458.81.623.983.255.27.361.308.729.26.236-.032.747-.213 1.134-.404zm-4.752-4.316c.204-.39-.323-1.084-1.37-1.805-1.488-1.024-2.915-1.339-6.066-1.34-2.604 0-4.004.266-4.004.764 0 .294.158.321 2.67.46 4.1.228 5.855.606 7.468 1.61.882.549 1.145.612 1.302.311zm11.083-3.695c.143-.276.723-2.248.724-2.46 0-.035-.638-.37-1.418-.743-2.625-1.256-5.045-1.895-7.536-1.99-1.253-.048-1.498-.028-1.835.148-.587.306-.778.795-.779 1.988v1.007l1.919-.003c1.473-.003 2.1.042 2.697.192 1.504.379 2.584.77 4.066 1.475.823.39 1.607.712 1.744.714.163.002.305-.11.418-.328zm-.966-4.809c.212-.212.156-.546-.195-1.158-.382-.665-.92-1.155-1.271-1.155-.63 0-1.75 1.075-1.58 1.517.072.188.624.441 1.566.718.797.234 1.298.26 1.48.078zm-6.193-1.385c.205-.247.177-1.118-.044-1.34-.158-.158-.208-.153-.545.056-.342.212-.728.588-1.253 1.218l-.209.25h.95c.747 0 .98-.039 1.101-.184zm2.378-.825c0-.23-.06-.275-.407-.304-.315-.026-.445.02-.576.207-.32.459.036.73.649.495.244-.094.334-.2.334-.398z" stroke-width=".111"/><g fill="#fff" stroke-width=".42"><path d="M110.928 23.34c.152-.199.49-.525.75-.726.578-.445.782-.348.782.374 0 .602-.176.714-1.12.714h-.688zM113.873 23.075c-.039-.038-.02-.163.04-.278.156-.291.771-.289.771.003 0 .283-.6.487-.811.275zM117.378 24.864c-.876-.236-1.691-.613-1.691-.783 0-.375 1.053-1.269 1.495-1.269.547 0 1.692 1.703 1.39 2.066-.161.194-.43.191-1.194-.014zM117.855 29.48c-3.21-1.46-4.369-1.758-6.986-1.799l-1.967-.03v-.93c-.002-1.78.389-2.09 2.502-1.982 2.502.127 4.987.79 7.528 2.007l1.3.623-.21.763c-.334 1.203-.603 1.85-.78 1.878-.09.014-.714-.225-1.387-.53zM111.513 37.89c-.386-.385-.885-1.477-1.173-2.565-.268-1.017-.412-3.9-.275-5.541l.08-.966h.964c2.537.003 5.373.797 6.29 1.764.424.446.369.865-.298 2.251-1.118 2.328-2.788 4.392-3.99 4.93-.977.439-1.264.462-1.598.127z" stroke-width=".11112359999999999"/><path d="M118.783 68.608c-1.142-1.617-1.471-1.992-2.568-2.927-.535-.456-.973-.91-.973-1.008 0-.098.296-1.06.659-2.139.707-2.104.946-3.13 1.119-4.796.246-2.38.085-4.092-.498-5.284-.498-1.017-1.278-1.99-1.92-2.398-.508-.322-1.14-.438-1.14-.21 0 .174.294.714.997 1.83 1.408 2.237 1.495 3.254.33 3.873-.328.174-.568.195-1.716.147-3.3-.136-5.978-1.42-8.734-4.181-2.059-2.064-3.273-3.985-4.15-6.569-.41-1.205-.805-2.956-.923-4.085l-.068-.645 1.243.101c1.36.11 1.53.06 1.41-.42-.212-.848-1.768-1.28-4.633-1.288-1.68-.004-2.137.125-4.752 1.342-1.186.552-2.233.989-2.328.97-.095-.02-.479-.573-.854-1.23-.375-.658-.999-1.57-1.386-2.028-.488-.579-.684-.894-.64-1.034.179-.561 3.155-3.525 5.237-5.215 1.728-1.403 3.953-2.517 6.121-3.063.855-.216 1.292-.252 3.055-.254 1.757-.002 2.228.035 3.22.257 2.47.553 3.627 1.163 3.547 1.869-.048.416-.263.394-1.821-.184-1.853-.687-2.72-.815-5.613-.824-3.274-.01-4.128.196-4.938 1.198-.305.377-.345.51-.345 1.128 0 .545.05.756.222.947.222.246.224.246 3.115.167 3.862-.105 4.04-.072 7.36 1.35 1.051.45 1.962.819 2.024.819.245 0 .231.26-.08 1.468a22.348 22.348 0 0 0-.733 5.54c-.005 1.335.027 1.674.189 1.969.547 1 2.536.387 6.31-1.946l1.611-.996.491.625c2.048 2.61 3.44 5.612 4.418 9.524.584 2.342.906 3.332 1.153 3.556.326.295 1.223.171 2.271-.313 1.002-.463 1.078-.597.945-1.685-.534-4.382-2.82-9.648-6.105-14.071-1.324-1.782-1.671-2.586-1.342-3.106.145-.228.494.027 1.356.99 3.002 3.352 5.277 7.874 6.589 13.094.517 2.059.724 3.516.863 6.084.164 3.037.007 5.36-.474 7.004-.889 3.042-3.159 5.788-5.723 6.922l-.595.263z" stroke-width=".11112359999999999"/><path d="M107.345 33.136c-1.973-1.094-3.26-1.378-7.453-1.645-2.239-.143-2.67-.205-2.67-.384 0-.447 1.737-.667 4.616-.587 2.433.068 3.2.2 4.33.744 1.286.62 2.421 1.723 2.246 2.18-.086.223-.139.208-1.068-.308zM79.97 50.548c-.088-.105-.166-.517-.186-.973-.035-.82.037-1.075 1.026-3.672.502-1.317.38-1.84-.432-1.852-.68-.01-1.62-.49-1.62-.83 0-.072.288-.414.64-.76 1.421-1.394 2.013-1.559 3.3-.923.479.237.989.594 1.232.864.374.413.41.508.363.931-.034.297-.193.666-.43.995-1.414 1.963-1.518 2.18-1.088 2.263.432.083 2.974-1.932 3.374-2.674.206-.384.206-.39-.052-.923-.33-.681-1.609-2.033-2.427-2.564-.711-.463-.907-.668-.907-.951 0-.285.52-.742 1.224-1.076.815-.386 2.048-.407 2.739-.046.844.44 1.497 1.485 1.781 2.847.345 1.654.049 2.201-2.202 4.072-3.23 2.686-3.692 3.098-4.449 3.98-1.238 1.442-1.572 1.671-1.887 1.292zM77.98 47.897c0-.776.217-1.592.52-1.952.153-.182.324-.33.38-.33.363 0-.341 2.559-.747 2.715-.116.044-.153-.062-.153-.433zM82.427 51.887c.001-.599.819-1.333 1.164-1.046.433.358-.021 1.07-.759 1.19-.346.055-.405.034-.405-.144zM106.327 69.35C103.543 67.11 89.634 54.561 86.1 51.1c-1.469-1.44-1.809-1.828-1.698-1.94.342-.348 1.286.428 6.925 5.695 2.05 1.914 6.054 5.635 8.899 8.269 6.412 5.937 7.163 6.661 7.102 6.844-.032.095-.38-.12-1.001-.62zM110.96 59.962c-2.431-.31-5.496-1.684-8.139-3.649-1.358-1.009-3.821-3.503-4.9-4.96-1.465-1.98-3.22-5.438-3.337-6.578-.052-.501-.018-.666.222-1.072.41-.695 2.724-2.943 2.874-2.792.065.065.314.962.553 1.993.537 2.312.866 3.324 1.564 4.815 1.575 3.365 4.566 6.42 7.67 7.834 1.998.91 3.439 1.247 6.051 1.415 1.04.066 2.004.143 2.141.17.379.074.319.442-.26 1.597-.378.756-.586 1.048-.806 1.134-.404.156-2.678.214-3.633.093z" stroke-width=".11112359999999999"/><path d="M107.732 62.732c-1.1-.62-3.202-1.777-4.67-2.572-3.928-2.128-4.918-2.837-6.332-4.533-1.916-2.298-5.625-8.265-5.46-8.784.126-.397.912-1.297 1.258-1.44.504-.21.731-.02 1.23 1.02.242.504.77 1.61 1.173 2.46 1.26 2.646 2.58 4.467 4.81 6.635 2.462 2.394 4.655 3.766 7.728 4.835 1.149.4 3.394.866 4.825 1.002 1.278.121 1.281.126.428.702-.91.613-2.841 1.8-2.928 1.8-.034 0-.962-.506-2.062-1.125zM106.097 66.534c-1.293-.82-6.338-5.44-6.712-6.145-.207-.391-.054-.444.67-.231 1.586.464 8.377 4.326 8.591 4.885.086.224-.967 1.253-1.628 1.59l-.424.216zM95.83 57.282c-1.059-.873-3.675-3.308-4.844-4.51-.919-.943-1.217-1.327-1.362-1.755-.301-.884-.205-1.844.184-1.844.204 0 .707.561 1.697 1.891a156.33 156.33 0 0 0 2.37 3.059c2.7 3.398 2.855 3.615 2.595 3.615-.047 0-.334-.206-.64-.457zM117.225 71.28c-.095-.076-.447-.514-.783-.973-.68-.93-1.533-1.77-2.09-2.058-.565-.291-1.487-.32-2.47-.078-.598.148-.891.177-.973.095-.162-.161-.144-1.402.025-1.74.076-.154.333-.374.571-.49.39-.191.516-.2 1.248-.086 2.35.365 3.888 1.437 4.884 3.402.496.98.517 1.057.39 1.441-.073.223-.227.455-.34.516-.258.139-.255.139-.462-.029z" stroke-width=".11112359999999999"/><path d="M112.616 75.588c-.623-.951.797-5.836 1.697-5.836.226 0 .939.676 1.283 1.218.358.563.374.762.148 1.828-.248 1.17-.516 1.623-1.292 2.187-1.404 1.022-1.534 1.064-1.836.603zM111.087 70.905c-.162-.161-.294-.36-.294-.443 0-.082.255-.35.566-.596.92-.727 1.306-.55.885.402-.262.593-.527.93-.73.93-.074 0-.266-.132-.427-.293zM108.404 73.617c.225-.754 1.276-2.018 1.496-1.798.18.18-1.166 2.048-1.474 2.048-.053 0-.063-.113-.022-.25zM92.22 74.564c-2.866-3.105-3.18-3.67-2.67-4.795.335-.738.734-1.197 3.465-3.984 2.399-2.448 2.968-3.13 2.816-3.377-.232-.374-.975.169-3.905 2.853-1.194 1.094-2.212 2.004-2.262 2.022-.05.018-.379-.532-.73-1.223-.896-1.763-1.458-2.574-2.463-3.55-.992-.964-1.7-1.448-3.48-2.376-.687-.359-1.277-.72-1.309-.805-.116-.302 2.402-3.656 3.972-5.29l.724-.755 1.836 1.64c9.95 8.887 15.3 13.921 15.516 14.605.323 1.018-.927 2.255-5.005 4.953-1.933 1.28-3.986 2.5-4.203 2.5-.039 0-1.074-1.088-2.302-2.418zM141.426 99.112c-.872-.277-2.114-1.09-3.407-2.23a31.245 31.245 0 0 0-2.083-1.66c-1.392-.993-9.155-7.657-15.741-13.513-3.536-3.143-4.012-3.59-3.92-3.683.095-.095 4.126 3.342 16.247 13.854 2.006 1.74 4.007 3.455 4.447 3.811 1.057.857 2.142 1.39 3.291 1.616 1.674.33 3.708-.052 8.63-1.619 4.085-1.3 4.506-1.401 4.672-1.132.038.061.075.366.082.678.012.52-.019.59-.368.861-.21.162-.59.486-.844.719-.43.393-.629.467-2.74 1.022-1.252.33-2.695.725-3.207.88-.878.267-3.258.631-4.028.617-.193-.003-.657-.103-1.031-.221zM84.83 81.647c-.66-.162-2.145-.988-2.75-1.53-.713-.638-.862-1.112-.599-1.904.248-.745 1.061-1.955 2.023-3.01.81-.887 2.886-2.878 3.692-3.541l.485-.399.35.39c.886.99 3.262 3.715 3.44 3.947l.2.26-.7.343c-.852.416-1.09.68-1.091 1.21-.003.978-1.943 3.31-3.352 4.028a2.499 2.499 0 0 1-1.699.206z" stroke-width=".11112359999999999"/><path d="M80.792 73.813c-1.598-.44-3.241-1.682-3.927-2.969-.449-.843-.576-2.05-.299-2.845.41-1.176 1.377-2.372 2.76-3.416 1.234-.931 1.546-1.277 1.546-1.712 0-.223-.14-.635-.334-.977-.556-.986-.417-1.176.634-.871 2.534.734 5.915 3.262 6.82 5.099.347.706.359.77.226 1.215-.304 1.014-1.537 3.047-2.66 4.385-1.428 1.7-3.262 2.504-4.766 2.09zM78.051 76.808c-1.531-.371-3.112-1.568-3.694-2.798-.245-.517-.287-.739-.25-1.313.05-.791.443-1.442.947-1.568.252-.064.356.005.794.527 1.12 1.333 2.577 2.497 4.618 3.686.71.414.755.592.268 1.04-.656.6-1.446.725-2.683.426zM81.345 83.538c-1.165-.23-2.302-1.04-2.432-1.734-.057-.306.003-.532.292-1.102.533-1.05.579-1.068 1.198-.473.861.827 1.866 1.61 2.673 2.08.964.564 1.083.699.823.934-.394.357-1.559.492-2.554.296zM72.357 83.57c-1.137-.385-2.067-.945-2.632-1.582-.411-.465-.439-.536-.377-.988.17-1.251 1.616-4.615 2.67-6.214.292-.443.572-.831.622-.862.05-.031.341.281.648.694.545.735 1.58 1.815 2.133 2.227.658.49 1.237.772 2.334 1.138.745.248 1.18.452 1.2.561.072.372-3.97 4.812-4.689 5.154-.522.248-.869.225-1.909-.128zM76.977 87.997c-.254-.14-.613-.216-1.035-.22-.792-.005-1.634-.206-1.711-.408-.066-.172.224-.694 1.384-2.488 1.43-2.212 1.499-2.24 3.146-1.274 1.477.866 2.13 1.15 2.833 1.233.335.039.69.13.79.203.157.114.111.19-.362.607-1.158 1.021-3.437 2.34-4.322 2.5-.217.04-.47-.014-.723-.153zM72.64 85.645c-1.492-.406-2.786-1.21-1.947-1.21.373 0 2.273.617 2.592.842.203.143.229.212.126.337-.147.177-.222.18-.77.03zM67.99 90.637c-.326-.474-.8-1.35-.8-1.477 0-.037.296.166.658.45.978.769 1.144.703 1.458-.58.106-.433.143-.468.528-.5.377-.031.418-.067.45-.391.025-.266.179-.488.601-.868.864-.776 1.298-.554.8.41-.448.867-2.848 3.429-3.213 3.429-.087 0-.305-.213-.483-.473zM65.529 92.262c-.68-.238-1.306-.642-1.928-1.244-.602-.583-.665-.897-.245-1.227 1.252-.985 3.52.35 3.351 1.972-.074.71-.3.806-1.178.499zM67.587 92.563c-.198-.219-.156-.675.062-.675.28 0 1.099.26 1.099.348 0 .116-.664.54-.845.541-.067 0-.21-.096-.316-.214zM122.54 53.191c-.107-.118-.447-1.241-.784-2.588-.741-2.96-.957-3.527-2.806-7.36-1.876-3.891-2.132-4.525-1.822-4.525.324 0 1.869 1.846 2.799 3.346 1.35 2.177 3.536 7.908 3.732 9.787.088.845-.009 1.176-.404 1.38-.418.217-.486.213-.715-.04zM109.047 42.529c-.148-.35-.165-.708-.104-2.197.078-1.918.207-2.8.443-3.036.125-.125.207-.059.504.403.195.304.6.783.901 1.064.496.464.598.512 1.093.512.44 0 .8-.126 1.87-.652.728-.358 1.442-.69 1.587-.735.245-.078.258-.062.186.234-.184.754-1.235 1.904-2.71 2.964-.95.681-3.105 1.86-3.404 1.86-.115 0-.26-.166-.366-.418z" stroke-width=".11112359999999999"/></g><animateMotion dur="1.5s" begin="2s" repeatCount="1"><mpath xlink:href="#a"/></animateMotion><animate attributeName="opacity" from="0" to="1" begin="2s" additive="replace" fill="freeze" dur="0.2s"/><animateTransform attributeName="transform" additive="sum" dur="1.5s" type="scale" begin="2s" from="0 0" to="1 1" repeatCount="1"/></g><path id="a" fill="transparent" d="M400 50Q-100-100 0 0"/></svg>