<svg version="1" xmlns="http://www.w3.org/2000/svg" width="800" height="600" viewBox="0 0 300 200" style="position:fixed;left:auto;top:12.5%"><path d="M20.013 132.33c-8.924-2.333-16.493-9.844-18.754-18.607-.877-3.4-.885-10-.016-13.346 2.518-9.703 9.988-16.81 20.012-19.04 8.804-1.959 18.944 1.38 24.918 8.207 2.4 2.742 5.103 7.918 5.779 11.066.28 1.306.622 2.861.759 3.455.181.789.4.211.813-2.141 2.421-13.822 16.158-23.155 30.323-20.601 9.105 1.641 16.557 8.03 19.853 17.022 1.427 3.894 1.792 10.338.818 14.468-2.665 11.304-12.236 19.363-23.81 20.05-7.725.458-14.535-2.078-19.894-7.41-4.237-4.215-7.481-10.778-7.567-15.311-.038-1.991-.537-.863-1.203 2.721-1.626 8.744-10.068 17.347-19.115 19.48-3.449.813-9.78.806-12.915-.014zm12.329-2.14c8.798-2.245 15.601-9.151 17.673-17.94 2.291-9.72-1.946-19.862-10.65-25.487-7.571-4.894-17.737-4.896-25.304-.004-13.139 8.493-15.123 26.007-4.19 36.996 5.979 6.01 14.539 8.461 22.472 6.436zm2.236-8.195c-1.137-.312-3.538-1.267-5.337-2.121-1.798-.854-3.42-1.553-3.606-1.553-.184 0-.558.885-.83 1.966l-.495 1.966-4.434-.26-.985-5.832c-.813-4.812-3.333-17.036-4.337-21.034l-.25-.996h7.721c8.65 0 9.494.223 12.82 3.39 2.317 2.207 3.311 4.33 3.311 7.075 0 3.473-1.032 5.007-4.586 6.814-1.635.831-3.06 1.567-3.168 1.634-.106.067 1.789 2.111 4.212 4.543 2.424 2.432 4.406 4.563 4.406 4.738 0 .47-2.1.315-4.442-.33zm-2.237-14.229c.585-.383 1.064-1.064 1.064-1.512 0-1.2-2.482-3.126-3.825-2.968-.981.116-1.17.423-1.605 2.605-.272 1.361-.376 2.594-.232 2.74.439.446 3.468-.124 4.599-.865zm52.881 22.445c8.822-2.347 15.618-9.56 17.513-18.586.8-3.805.799-5.705-.002-9.503-1.002-4.752-2.915-8.178-6.653-11.916-9.802-9.802-24.007-9.802-33.75 0-6.434 6.474-8.628 14.746-6.19 23.346 2.134 7.526 8.201 13.779 15.738 16.219 3.815 1.235 9.64 1.427 13.345.441zm-8.506-8.41c-3.465-.855-6.19-4.388-8.35-10.824-1.814-5.405-2.09-8.714-.94-11.312 1.648-3.726 5.49-5.645 11.336-5.663 4.096-.012 6.989.95 9.218 3.067 1.928 1.832 2.445 3.218 2.445 6.557 0 5.885-4.157 14.926-7.93 17.244-1.668 1.026-3.925 1.39-5.78.932zm4.269-8.525c1.635-1.433 1.127-6.189-.905-8.462-1.945-2.178-3.769-.56-4.212 3.738-.494 4.78 2.207 7.274 5.117 4.724zm44.088 18.858c-13.516-3.54-21.925-17.243-18.908-30.807 2.279-10.245 10.455-18.166 20.649-20.004 8.58-1.547 17.147 1.103 23.23 7.187 4.04 4.04 7.34 10.809 7.34 15.058 0 2.145.283 1.589 1.04-2.046 2.005-9.613 9.785-17.68 19.263-19.973 3.395-.822 10.022-.708 13.153.225 9.834 2.933 16.626 10.272 18.623 20.126 1.774 8.758-.798 17.023-7.341 23.586-6.408 6.429-15.702 8.947-24.61 6.669-4.859-1.243-8.192-3.168-11.96-6.908-3.766-3.737-6.065-7.867-7.065-12.693-.695-3.35-1.103-4.109-1.103-2.049 0 2.185-1.985 7.56-3.926 10.633-5.833 9.235-17.644 13.81-28.386 10.996zm14.018-2.374c7.83-2.629 13.87-9.051 15.923-16.927.815-3.132.818-8.72.006-11.772-2.3-8.642-9.29-15.45-17.961-17.494-14.782-3.484-29.311 8.17-29.345 23.539-.024 10.329 7.694 20.354 17.753 23.059 3.89 1.046 9.826.87 13.624-.406zm-11.482-9.172c-1.792-6.685-5.215-24.054-5.215-26.456 0-.274 2.706-.435 7.352-.435h7.351l-.22.972c-.692 3.05-2.847 18.584-2.611 18.82.155.155 1.726.355 3.492.444 1.766.089 3.208.287 3.204.439-.005.236-.42 2.114-1.514 6.864-.218.947-.37.972-5.815.972h-5.59zm64.142 9.037c7.38-2.57 12.788-8.07 15.148-15.408 2.85-8.865.29-18.477-6.61-24.81-3.35-3.075-6.073-4.566-10.327-5.654-5.968-1.526-10.581-1.03-16.443 1.768-7.703 3.677-12.811 11.318-13.4 20.045-.461 6.837 1.964 13.146 6.98 18.157 5.052 5.048 9.876 7.051 17.068 7.091 3.418.02 4.684-.18 7.583-1.188zm-17.665-15.948c-.156-4.455-.284-10.675-.285-13.823V94.13h19.87v27.647h-6.007l-1.167-3.888c-1.101-3.67-1.234-3.888-2.354-3.888-1.242 0-1.206-.076-3.27 7.02-.183.63-.74.756-3.362.756h-3.142zm12.102-3.165c.882-.883-.841-6.015-2.02-6.015-1.21 0-2.932 4.902-2.083 5.925.558.673 3.456.737 4.102.09z" stroke-dasharray="800" stroke-dashoffset="800" fill="none" stroke="#000" style="animation:draw 3s linear 1 forwards"><animate attributeName="fill" from="#d4d6d8" to="#000000" dur="3s" additive="replace" fill="freeze"/></path></svg>